# xmcd
#
# Track frame offsets: 
#        150
#        18537
#        33300
#        51550
#        67775
#        87900
#        106162
#        126750
#        148975
#        165575
#        188000
#        208725
#        225600
#        243400
#        258312
#        288025
#        307387
#        329762
#
# Disc length: 4666 seconds
#
# Revision: 4
# Processed by: cddbd v1.5.2PL0 Copyright (c) Steve Scherf et al.
# Submitted via: ExactAudioCopy v0.99pb5
#
DISCID=09123812
DTITLE=Lake - Definitive Collection
DYEAR=1997
DGENRE=
TTITLE0=On The Run
TTITLE1=Time Bomb
TTITLE2=Hopeless Love
TTITLE3=Hard Road
TTITLE4=Angel In Disguise
TTITLE5=Do I Love You
TTITLE6=Key To The Rhyme
TTITLE7=Red Lake
TTITLE8=Jesus Came Down
TTITLE9=See Them Glow
TTITLE10=Jamaica High
TTITLE11=Sanford And Son
TTITLE12=Crystal Eyes
TTITLE13=Paradise Way
TTITLE14=Black Friday (Live)
TTITLE15=Band At The Top
TTITLE16=Sound Of America, The
TTITLE17=Love's A Jailer
EXTD=
EXTT0=
EXTT1=
EXTT2=
EXTT3=
EXTT4=
EXTT5=
EXTT6=
EXTT7=
EXTT8=
EXTT9=
EXTT10=
EXTT11=
EXTT12=
EXTT13=
EXTT14=
EXTT15=
EXTT16=
EXTT17=
PLAYORDER=
